# File produced by Open Asset Import Library (http://www.assimp.sf.net)
# (assimp v4.1.3154142419)

mtllib 1.mtl

# 6 vertex positions
v  -0.5840101838111877 -0.03636404871940613 0.02551428601145744
v  -0.6290101408958435 -0.07636398077011108 0.02551402524113655
v  -0.6290099024772644 -0.07636398077011108 -0.02448602765798569
v  -0.5840098857879639 -0.03636404871940613 -0.02448578178882599
v  -0.6740099191665649 -0.03636404871940613 -0.02448628097772598
v  -0.674010157585144 -0.03636404871940613 0.02551376447081566

# 0 UV coordinates

# 7 vertex normals
vn 0.6643633842468262 -0.7474100589752197 3.665685653686523e-06
vn 0.6643635034561157 -0.7474099397659302 3.486871719360352e-06
vn 0 1.000000238418579 0
vn -5.7220458984375e-06 0 1.000000238418579
vn -0.6643635034561157 -0.7474101185798645 -3.486871719360352e-06
vn -0.6643635034561157 -0.7474100589752197 -3.665685653686523e-06
vn 5.602836608886719e-06 -1.192092895507812e-07 -1.000000238418579

# Mesh '' with 8 faces
usemtl $Material_0
f  1//1 2//1 3//1
f  1//2 3//2 4//2
f  4//3 5//3 6//3
f  4//3 6//3 1//3
f  6//4 2//4 1//4
f  6//5 5//5 3//5
f  6//6 3//6 2//6
f  4//7 3//7 5//7

