# File produced by Open Asset Import Library (http://www.assimp.sf.net)
# (assimp v4.1.3154142419)

mtllib half-cylinder.mtl

# 35 vertex positions
v  -0.5988119840621948 -0.004498999565839767 -0.01536096073687077
v  -0.598801851272583 -0.004498999565839767 0.01482203789055347
v  -0.5906538367271423 -0.005438998341560364 0.01481929793953896
v  -0.5906639695167542 -0.005438998341560364 -0.01536370441317558
v  -0.582818865776062 -0.008216001093387604 0.01481666043400764
v  -0.5828289985656738 -0.008216001093387604 -0.01536634005606174
v  -0.5755988359451294 -0.01272900030016899 0.0148142296820879
v  -0.5756089687347412 -0.01272900030016899 -0.01536877080798149
v  -0.5692698359489441 -0.018800999969244 0.01481209881603718
v  -0.5692799687385559 -0.018800999969244 -0.01537090167403221
v  -0.5640758872032166 -0.02620199881494045 0.0148103516548872
v  -0.5640859603881836 -0.02620199881494045 -0.01537264883518219
v  -0.5602168440818787 -0.0346440002322197 0.01480905152857304
v  -0.5602269768714905 -0.0346440002322197 -0.0153739470988512
v  -0.5578398704528809 -0.04380500316619873 0.01480825245380402
v  -0.5578499436378479 -0.04380500316619873 -0.01537474803626537
v  -0.557037889957428 -0.05333099886775017 0.01480798237025738
v  -0.557047963142395 -0.05333099886775017 -0.01537501811981201
v  -0.639773964881897 -0.04380500316619873 -0.01534717343747616
v  -0.6405760049819946 -0.05333099886775017 -0.01534690521657467
v  -0.6405677199363708 -0.05333099886775017 0.00917709618806839
v  -0.6405658721923828 -0.05333099886775017 0.01483609527349472
v  -0.6397638916969299 -0.04380500316619873 0.01483582705259323
v  -0.6373868584632874 -0.0346440002322197 0.01483502611517906
v  -0.6373969912528992 -0.0346440002322197 -0.01534797251224518
v  -0.6335278749465942 -0.02620199881494045 0.01483372785151005
v  -0.6335379481315613 -0.02620199881494045 -0.01534927263855934
v  -0.6283338665962219 -0.018800999969244 0.01483197882771492
v  -0.6283439993858337 -0.018800999969244 -0.01535102166235447
v  -0.6220038533210754 -0.01272900030016899 0.0148298479616642
v  -0.6220139861106873 -0.01272900030016899 -0.01535315252840519
v  -0.6147838830947876 -0.008216001093387604 0.0148274190723896
v  -0.6147939562797546 -0.008216001093387604 -0.01535558141767979
v  -0.6069488525390625 -0.005438998341560364 0.01482478156685829
v  -0.6069589853286743 -0.005438998341560364 -0.0153582189232111

# 0 UV coordinates

# 65 vertex normals
vn 0.1146052554249763 0.9934111833572388 -3.8666734326398e-05
vn 0.1146052554249763 0.9934111833572388 -3.866458428092301e-05
vn 0.3340734243392944 0.942547082901001 -0.0001127132272813469
vn 0.3340734541416168 0.942547082901001 -0.0001127131399698555
vn 0.5300395488739014 0.8479730486869812 -0.0001788303488865495
vn 0.5300395488739014 0.8479730486869812 -0.0001788270019460469
vn 0.6923038959503174 0.7216060757637024 -0.0002335768076591194
vn 0.6923039555549622 0.7216061353683472 -0.0002335759345442057
vn 0.8185428380966187 0.5744454264640808 -0.0002761686337180436
vn 0.8185397982597351 0.574449896812439 -0.0002745550591498613
vn 0.90948086977005 0.4157457053661346 -0.0003050542436540127
vn 0.9094833135604858 0.4157404005527496 -0.000306854402879253
vn 0.9679481983184814 0.2511501312255859 -0.0003265765844844282
vn 0.9679465889930725 0.2511560618877411 -0.0003246641717851162
vn 0.9964748620986938 0.0838918536901474 -0.0003342334239277989
vn 0.9964748620986938 0.0838918462395668 -0.0003342349373269826
vn -0.9964743256568909 0.08389804512262344 0.0003368061734363437
vn -0.9964750409126282 0.08388978242874146 0.0003335651126690209
vn -0.9964748620986938 0.0838918462395668 0.0003342317650094628
vn -0.9679465889930725 0.2511560320854187 0.0003246645792387426
vn -0.9679481983184814 0.2511501610279083 0.0003265750128775835
vn -0.9094833135604858 0.4157403707504272 0.000306851085042581
vn -0.90948086977005 0.4157456755638123 0.000305048655718565
vn -0.8185397386550903 0.5744498372077942 0.0002745511592365801
vn -0.8185428380966187 0.5744454264640808 0.0002761690702755004
vn -0.6922462582588196 0.7216615080833435 0.0002335573663003743
vn -0.6922461986541748 0.7216614484786987 0.0002335564349777997
vn -0.5300426483154297 0.8479710221290588 0.0001788313966244459
vn -0.5300395488739014 0.8479730486869812 0.0001777794677764177
vn 0.0003364861477166414 -2.073647920042276e-08 1
vn 0.0003366414166521281 6.469635991379619e-07 1
vn 0.0003365781158208847 9.681389201432467e-08 1
vn 0.0003365781158208847 -3.022287273779511e-07 1
vn 0.0003365343145560473 7.798371370881796e-08 1
vn 0.0003365270094946027 1.094304025173187e-07 1
vn 0.0003365589072927833 1.945591066032648e-08 1
vn 0.000336553726810962 3.019522409886122e-08 1
vn 0.0003366044256836176 -5.093170329928398e-08 1
vn 0.0003365816664882004 -2.179876901209354e-08 1
vn 0.0003367270110175014 6.124901119619608e-08 1
vn 0.0003366220626048744 -1.239823177456856e-08 1
vn 0.0003366767195984721 3.43279680237174e-08 1
vn 0.0003369329788256437 3.013847162947059e-07 1
vn 0.0003364459844306111 -3.219465725123882e-07 1
vn -0.3340711891651154 0.9425478577613831 0.000112052759504877
vn -0.3340734541416168 0.942547082901001 0.0001127131399698555
vn -0.1146193295717239 0.9934095740318298 3.867148188874125e-05
vn -0.1146193146705627 0.9934095740318298 3.867300256388262e-05
vn -0.0003366023011039943 4.685716703534126e-09 -1
vn -0.0003366023011039943 2.839078661054373e-08 -1
vn -0.0003366252640262246 -1.711887307465076e-07 -1
vn -0.0003365783486515284 3.064633347094059e-08 -1
vn -0.0003365581505931914 8.758797775954008e-08 -1
vn -0.0003366689197719097 -1.411390257999301e-07 -1
vn -0.0003364875738043338 1.490116119384766e-07 -1
vn -0.0003366465680301189 -5.448237061500549e-08 -1
vn -0.0003365816664882004 1.314037945121527e-08 -1
vn -0.0003366396413184702 5.384208634495735e-08 -1
vn -0.0003367067547515035 1.112348400056362e-07 -1
vn -0.0003364102449268103 -1.978041836991906e-07 -1
vn -0.0003366390592418611 9.511131793260574e-08 -1
vn -0.0003365245065651834 -8.819915819913149e-08 -1
vn -0.0003367356257513165 3.477180143818259e-07 -1
vn 0 1 0
vn 0 -1 0

# Mesh '' with 66 faces
usemtl $Material_0
f  1//1 2//1 3//1
f  1//2 3//2 4//2
f  4//3 3//3 5//3
f  4//4 5//4 6//4
f  6//5 5//5 7//5
f  6//6 7//6 8//6
f  8//7 7//7 9//7
f  8//8 9//8 10//8
f  10//9 9//9 11//9
f  10//10 11//10 12//10
f  12//11 11//11 13//11
f  12//12 13//12 14//12
f  14//13 13//13 15//13
f  14//14 15//14 16//14
f  16//15 15//15 17//15
f  16//16 17//16 18//16
f  19//17 20//17 21//17
f  19//18 21//18 22//18
f  22//19 23//19 19//19
f  19//20 23//20 24//20
f  19//21 24//21 25//21
f  25//22 24//22 26//22
f  25//23 26//23 27//23
f  27//24 26//24 28//24
f  27//25 28//25 29//25
f  29//26 28//26 30//26
f  29//27 30//27 31//27
f  31//28 30//28 32//28
f  31//29 32//29 33//29
f  5//30 3//30 2//30
f  5//31 2//31 34//31
f  5//32 34//32 32//32
f  5//33 32//33 30//33
f  5//34 30//34 28//34
f  5//35 28//35 26//35
f  5//36 26//36 24//36
f  5//37 24//37 23//37
f  5//38 23//38 22//38
f  5//39 22//39 17//39
f  5//40 17//40 15//40
f  5//41 15//41 13//41
f  5//42 13//42 11//42
f  5//43 11//43 9//43
f  9//44 7//44 5//44
f  33//45 32//45 34//45
f  33//46 34//46 35//46
f  35//47 34//47 2//47
f  35//48 2//48 1//48
f  35//49 1//49 4//49
f  35//50 4//50 6//50
f  35//51 6//51 8//51
f  35//52 8//52 10//52
f  35//53 10//53 12//53
f  35//54 12//54 14//54
f  35//55 14//55 16//55
f  35//56 16//56 18//56
f  35//57 18//57 20//57
f  35//58 20//58 19//58
f  35//59 19//59 25//59
f  35//60 25//60 27//60
f  35//61 27//61 29//61
f  35//62 29//62 31//62
f  31//63 33//63 35//63
f  20//64 22//64 21//64
f  22//65 20//65 18//65
f  22//65 18//65 17//65

