# File produced by Open Asset Import Library (http://www.assimp.sf.net)
# (assimp v4.1.3154142419)

mtllib triangle.mtl

# 6 vertex positions
v  -0.6746909618377686 -0.01589247584342957 0.01551829278469086
v  -0.7030370831489563 -0.06725209206342697 0.01551081240177155
v  -0.7030441761016846 -0.06724127382040024 -0.01450154185295105
v  -0.6746979951858521 -0.01588153094053268 -0.01449412107467651
v  -0.7405538558959961 -0.01092895120382309 -0.01448284089565277
v  -0.7405465841293335 -0.01093969494104385 0.0155295729637146

# 0 UV coordinates

# 8 vertex normals
vn 0.8755082488059998 -0.4832033216953278 -0.0003836154937744141
vn 0.8755075931549072 -0.4832044243812561 -0.0003808140754699707
vn 0.07499158382415771 0.997184157371521 0.0003368239849805832
vn 0.07499438524246216 0.9971839189529419 0.0003432650119066238
vn 0.000153958797454834 -0.0002306997776031494 1
vn -0.8322672843933105 -0.5543745160102844 4.259091838321183e-06
vn -0.8322681784629822 -0.554373562335968 1.219838395627448e-06
vn -0.0001534819602966309 0.0002299696207046509 -1.000000238418579

# Mesh '' with 8 faces
usemtl $Material_0
f  1//1 2//1 3//1
f  1//2 3//2 4//2
f  4//3 5//3 6//3
f  4//4 6//4 1//4
f  6//5 2//5 1//5
f  6//6 5//6 3//6
f  6//7 3//7 2//7
f  4//8 3//8 5//8

