# Blender v2.90.0 OBJ File: ''
# www.blender.org
mtllib 1.mtl
o Cube_Cube.007
v -0.025000 -0.025000 0.050000
v -0.025000 0.025000 0.050000
v -0.025000 0.025000 -0.050000
v -0.025000 -0.025000 -0.050000
v 0.025000 0.025000 -0.050000
v 0.025000 -0.025000 -0.050000
v 0.025000 0.025000 -0.027532
v 0.025000 0.013000 -0.027532
v 0.025000 -0.025000 -0.027532
v 0.025000 -0.025000 0.050000
v 0.025000 0.025000 0.050000
v 0.019928 -0.025000 -0.026345
v 0.015050 -0.025000 -0.024507
v 0.010555 -0.025000 -0.021618
v 0.006615 -0.025000 -0.018385
v 0.003382 -0.025000 -0.014445
v 0.000979 -0.025000 -0.009950
v -0.000500 -0.025000 -0.005072
v -0.001000 -0.025000 -0.000000
v -0.000500 -0.025000 0.005072
v 0.000979 -0.025000 0.009950
v 0.003382 -0.025000 0.014445
v 0.006615 -0.025000 0.018385
v 0.010555 -0.025000 0.021618
v 0.015050 -0.025000 0.024500
v 0.019928 -0.025000 0.026339
v 0.025000 -0.025000 0.027679
v 0.025000 0.025000 0.027679
v 0.019928 0.025000 0.026339
v 0.015050 0.025000 0.024500
v 0.010555 0.025000 0.021618
v 0.006615 0.025000 0.018385
v 0.003382 0.025000 0.014445
v 0.000979 0.025000 0.009950
v -0.000500 0.025000 0.005072
v -0.001000 0.025000 0.000000
v -0.000500 0.025000 -0.005072
v 0.000979 0.025000 -0.009950
v 0.003382 0.025000 -0.014445
v 0.006615 0.025000 -0.018385
v 0.010555 0.025000 -0.021618
v 0.015050 0.025000 -0.024507
v 0.019928 0.025000 -0.026345
v 0.025000 -0.013000 0.027679
vt 0.375000 0.000000
vt 0.625000 0.000000
vt 0.625000 0.250000
vt 0.375000 0.250000
vt 0.625000 0.500000
vt 0.375000 0.500000
vt 0.625000 0.560000
vt 0.565000 0.560000
vt 0.375000 0.560000
vt 0.375000 0.750000
vt 0.625000 0.750000
vt 0.625000 1.000000
vt 0.375000 1.000000
vt 0.125000 0.500000
vt 0.349638 0.561249
vt 0.325251 0.564948
vt 0.302776 0.570954
vt 0.283076 0.579038
vt 0.266909 0.588888
vt 0.254896 0.600126
vt 0.247498 0.612319
vt 0.245000 0.625000
vt 0.247498 0.637681
vt 0.254896 0.649874
vt 0.266909 0.661112
vt 0.283076 0.670962
vt 0.302776 0.679045
vt 0.325251 0.685052
vt 0.349638 0.688751
vt 0.375000 0.690000
vt 0.125000 0.750000
vt 0.875000 0.500000
vt 0.875000 0.750000
vt 0.625000 0.690000
vt 0.650362 0.688751
vt 0.674749 0.685052
vt 0.697224 0.679045
vt 0.716924 0.670962
vt 0.733091 0.661112
vt 0.745104 0.649874
vt 0.752502 0.637681
vt 0.755000 0.625000
vt 0.752502 0.612319
vt 0.745104 0.600126
vt 0.733091 0.588888
vt 0.716924 0.579038
vt 0.697224 0.570954
vt 0.674749 0.564948
vt 0.650361 0.561249
vt 0.343750 0.625000
vt 0.343750 0.875000
vt 0.375000 0.875000
vt 0.375000 0.625000
vt 0.093750 0.625000
vt 0.093750 0.875000
vt 0.125000 0.875000
vt 0.125000 0.625000
vt 0.218750 0.625000
vt 0.218750 0.875000
vt 0.250000 0.875000
vt 0.250000 0.625000
vt 0.437500 0.625000
vt 0.437500 0.875000
vt 0.468750 0.875000
vt 0.468750 0.625000
vt 0.435000 0.690000
vt 0.156250 0.875000
vt 0.156250 0.625000
vt 0.187500 0.625000
vt 0.187500 0.875000
vt 0.062500 0.625000
vt 0.062500 0.875000
vt 0.281250 0.625000
vt 0.281250 0.875000
vt 0.312500 0.875000
vt 0.312500 0.625000
vt 0.406250 0.875000
vt 0.406250 0.625000
vt 0.000000 0.625000
vt 0.000000 0.815000
vt 0.000000 0.875000
vt 0.031250 0.875000
vt 0.031250 0.625000
vt 0.500000 0.875000
vt 0.500000 0.685000
vt 0.500000 0.625000
vn -1.0000 0.0000 0.0000
vn 0.0000 0.0000 -1.0000
vn 1.0000 0.0000 0.0000
vn 0.0000 -0.0000 1.0000
vn 0.0000 -1.0000 -0.0000
vn -0.0000 1.0000 0.0000
vn 0.7731 0.0000 -0.6343
vn 0.6343 -0.0000 0.7731
vn 0.9952 -0.0000 0.0981
vn 0.3528 0.0000 -0.9357
vn 0.7731 -0.0000 0.6343
vn 0.9570 -0.0000 0.2902
vn 0.5407 -0.0000 0.8412
vn 0.9570 0.0000 -0.2902
vn 0.6343 0.0000 -0.7731
vn 0.5398 0.0000 -0.8418
vn 0.2278 -0.0000 0.9737
vn 0.8819 0.0000 -0.4715
vn 0.2554 0.0000 -0.9668
vn 0.8819 -0.0000 0.4715
vn 0.3526 -0.0000 0.9358
vn 0.9952 0.0000 -0.0981
usemtl None
s 1
f 1/1/1 2/2/1 3/3/1 4/4/1
f 4/4/2 3/3/2 5/5/2 6/6/2
f 6/6/3 5/5/3 7/7/3 8/8/3 9/9/3
f 10/10/4 11/11/4 2/12/4 1/13/4
f 4/14/5 6/6/5 9/9/5 12/15/5 13/16/5 14/17/5 15/18/5 16/19/5 17/20/5 18/21/5 19/22/5 20/23/5 21/24/5 22/25/5 23/26/5 24/27/5 25/28/5 26/29/5 27/30/5 10/10/5 1/31/5
f 5/5/6 3/32/6 2/33/6 11/11/6 28/34/6 29/35/6 30/36/6 31/37/6 32/38/6 33/39/6 34/40/6 35/41/6 36/42/6 37/43/6 38/44/6 39/45/6 40/46/6 41/47/6 42/48/6 43/49/6 7/7/6
f 22/50/7 33/51/7 32/52/7 23/53/7
f 14/54/8 41/55/8 40/56/8 15/57/8
f 18/58/9 37/59/9 36/60/9 19/61/9
f 25/62/10 30/63/10 29/64/10 26/65/10
f 27/30/3 44/66/3 28/34/3 11/11/3 10/10/3
f 15/57/11 40/56/11 39/67/11 16/68/11
f 17/69/12 38/70/12 37/59/12 18/58/12
f 13/71/13 42/72/13 41/55/13 14/54/13
f 20/73/14 35/74/14 34/75/14 21/76/14
f 23/53/15 32/52/15 31/77/15 24/78/15
f 24/78/16 31/77/16 30/63/16 25/62/16
f 9/79/17 8/80/17 7/81/17 43/82/17 12/83/17
f 21/76/18 34/75/18 33/51/18 22/50/18
f 26/65/19 29/64/19 28/84/19 44/85/19 27/86/19
f 16/68/20 39/67/20 38/70/20 17/69/20
f 12/83/21 43/82/21 42/72/21 13/71/21
f 19/61/22 36/60/22 35/74/22 20/73/22
