# File produced by Open Asset Import Library (http://www.assimp.sf.net)
# (assimp v4.1.3154142419)

mtllib 31.mtl

# 8 vertex positions
v  -0.6250004768371582 0.01249998062849045 0.02499892935156822
v  -0.6250004768371582 0.03749996796250343 0.0249989740550518
v  -0.6249994039535522 0.0375000424683094 -0.02500107139348984
v  -0.624999463558197 0.01249999459832907 -0.02500105276703835
v  -0.5249993801116943 0.03750001639127731 -0.02499895170331001
v  -0.5249994397163391 0.01249999832361937 -0.02499894425272942
v  -0.5250004529953003 0.03750003129243851 0.02500103786587715
v  -0.5250003933906555 0.01249995455145836 0.02500105649232864

# 0 UV coordinates

# 6 vertex normals
vn -1.000000238418579 1.138541847467422e-07 -2.086162567138672e-05
vn 2.082838909700513e-05 3.407767508178949e-07 -1.000000238418579
vn 1.000000238418579 -5.424953997135162e-08 2.086162567138672e-05
vn -2.083511208184063e-05 -2.811721060425043e-07 1
vn -1.382239673830554e-07 -1.000000238418579 -2.642045728862286e-07
vn 1.086154952645302e-07 1.000000238418579 3.388454672403896e-07

# Mesh '' with 12 faces
usemtl $Material_0
f  1//1 2//1 3//1
f  1//1 3//1 4//1
f  4//2 3//2 5//2
f  4//2 5//2 6//2
f  6//3 5//3 7//3
f  6//3 7//3 8//3
f  8//4 7//4 2//4
f  8//4 2//4 1//4
f  4//5 6//5 8//5
f  4//5 8//5 1//5
f  5//6 3//6 2//6
f  5//6 2//6 7//6

