# File produced by Open Asset Import Library (http://www.assimp.sf.net)
# (assimp v4.1.3154142419)

mtllib 80.mtl

# 64 vertex positions
v  -0.6260378360748291 0.04888357222080231 0.09732053428888321
v  -0.6260378360748291 0.0488835871219635 0.1473205387592316
v  -0.621423602104187 0.04796512424945831 0.1473205536603928
v  -0.621423602104187 0.04796510934829712 0.0973205491900444
v  -0.6170775890350342 0.04616373777389526 0.1473205387592316
v  -0.6170775294303894 0.04616372287273407 0.09732053428888321
v  -0.613166332244873 0.04354910552501678 0.1473205387592316
v  -0.613166332244873 0.04354909062385559 0.09732053428888321
v  -0.6098398566246033 0.04022244364023209 0.1473205387592316
v  -0.6098398566246033 0.04022243618965149 0.09732054173946381
v  -0.6072274446487427 0.03631004691123962 0.1473205387592316
v  -0.6072274446487427 0.03631003946065903 0.09732054173946381
v  -0.6054264307022095 0.03196322172880173 0.1473205536603928
v  -0.6054264307022095 0.03196322917938232 0.09732054173946381
v  -0.6045100688934326 0.02734898030757904 0.1473205536603928
v  -0.6045100092887878 0.02734898030757904 0.09732053428888321
v  -0.6045100092887878 0.02264322340488434 0.1473205536603928
v  -0.6045100092887878 0.02264322340488434 0.09732054173946381
v  -0.6054294109344482 0.01802921295166016 0.1473205536603928
v  -0.6054294109344482 0.01802921295166016 0.09732054173946381
v  -0.607230007648468 0.01368197798728943 0.1473205536603928
v  -0.607230007648468 0.01368197798728943 0.09732053428888321
v  -0.6098456382751465 0.009770885109901428 0.1473205536603928
v  -0.6098456382751465 0.009770877659320831 0.09732054173946381
v  -0.613172173500061 0.006445407867431641 0.1473205536603928
v  -0.613172173500061 0.006445407867431641 0.09732054173946381
v  -0.6170846819877625 0.0038318932056427 0.1473205536603928
v  -0.6170846819877625 0.0038318932056427 0.09732054173946381
v  -0.6214313507080078 0.002031952142715454 0.1473205536603928
v  -0.6214313507080078 0.002031981945037842 0.09732054173946381
v  -0.6260455846786499 0.001115560531616211 0.1473205536603928
v  -0.6260455846786499 0.001115560531616211 0.09732053428888321
v  -0.6307504177093506 0.001115456223487854 0.147320568561554
v  -0.6307504177093506 0.001115471124649048 0.09732054173946381
v  -0.63536536693573 0.002034991979598999 0.1473205536603928
v  -0.63536536693573 0.002034991979598999 0.09732053428888321
v  -0.6397124528884888 0.003836512565612793 0.1473205387592316
v  -0.6397124528884888 0.003836512565612793 0.09732052683830261
v  -0.6436237096786499 0.00645013153553009 0.1473205536603928
v  -0.6436237096786499 0.00645013153553009 0.09732053428888321
v  -0.6469491720199585 0.00977768748998642 0.1473205536603928
v  -0.6469491720199585 0.009777680039405823 0.09732054173946381
v  -0.6495627760887146 0.01368919014930725 0.1473205536603928
v  -0.6495627760887146 0.01368919759988785 0.09732053428888321
v  -0.6513617038726807 0.01803581416606903 0.1473205387592316
v  -0.6513617038726807 0.01803581416606903 0.09732053428888321
v  -0.6522790193557739 0.02265118062496185 0.1473205387592316
v  -0.6522790193557739 0.02265117317438126 0.09732054173946381
v  -0.6522780060768127 0.02735681086778641 0.1473205536603928
v  -0.6522780060768127 0.02735680341720581 0.09732054173946381
v  -0.6513596177101135 0.03197094053030014 0.1473205387592316
v  -0.6513596177101135 0.03197093307971954 0.09732053428888321
v  -0.6495581269264221 0.03631706535816193 0.1473205387592316
v  -0.6495581269264221 0.03631705045700073 0.09732054173946381
v  -0.646944522857666 0.04022835195064545 0.1473205536603928
v  -0.646944522857666 0.04022835195064545 0.09732054173946381
v  -0.6436169147491455 0.04355471581220627 0.1473205536603928
v  -0.6436168551445007 0.04355471581220627 0.09732053428888321
v  -0.63970547914505 0.04616732150316238 0.1473205387592316
v  -0.63970547914505 0.04616732150316238 0.09732053428888321
v  -0.6353577375411987 0.04796717315912247 0.1473205387592316
v  -0.6353577375411987 0.04796717315912247 0.09732054173946381
v  -0.6307433843612671 0.04888457059860229 0.1473205387592316
v  -0.6307433843612671 0.0488845556974411 0.09732054173946381

# 0 UV coordinates

# 34 vertex normals
vn 0.1952222883701324 0.9807589650154114 -2.793967723846436e-08
vn 0.3828950822353363 0.9237918853759766 -5.587935447692871e-09
vn 0.5557543039321899 0.8313466310501099 -2.60770320892334e-08
vn 0.7071278095245361 0.7070857882499695 -1.30385160446167e-08
vn 0.8316333889961243 0.5553250312805176 1.816079020500183e-08
vn 0.9238473773002625 0.3827609717845917 2.793967723846436e-08
vn 0.9808434844017029 0.1947979032993317 -4.307366907596588e-09
vn 1 1.357837664528461e-08 2.859483094752591e-09
vn 0.9807178378105164 -0.1954292804002762 -2.066371962428093e-09
vn 0.9238929152488708 -0.3826510608196259 -6.635673344135284e-09
vn 0.8312429785728455 -0.5559092164039612 1.629814505577087e-08
vn 0.7069905400276184 -0.7072229385375977 7.450580596923828e-09
vn 0.5554612278938293 -0.8315423130989075 -7.450580596923828e-09
vn 0.3825867772102356 -0.9239195585250854 -5.867332220077515e-08
vn 0.1947989761829376 -0.980843186378479 -5.21540641784668e-08
vn 1.963600516319275e-05 -1 -5.587935447692871e-09
vn -0.1954071819782257 -0.980722188949585 -4.470348358154297e-08
vn -0.3828391134738922 -0.9238150119781494 -1.490116119384766e-08
vn -0.5555981993675232 -0.8314509391784668 -3.352761268615723e-08
vn -0.707338809967041 -0.7068745493888855 -4.842877388000488e-08
vn -0.8314675092697144 -0.5555732846260071 1.117587089538574e-08
vn -0.9239914417266846 -0.3824131786823273 3.725290298461914e-09
vn -0.9808154702186584 -0.1949381679296494 3.725290298461914e-09
vn -1.00000011920929 0.0002127103507518768 -3.725290298461914e-09
vn -0.98075932264328 0.1952206045389175 -7.450580596923828e-09
vn -0.9237909913063049 0.382896900177002 0
vn -0.8314513564109802 0.5555975437164307 3.725290298461914e-09
vn -0.7069697380065918 0.7072436809539795 1.117587089538574e-08
vn -0.555436909198761 0.8315587043762207 -2.980232238769531e-08
vn -0.3824948668479919 0.9239576458930969 -1.490116119384766e-08
vn 0 0 0.9999998807907104
vn -0.1949971318244934 0.9808037877082825 -1.676380634307861e-08
vn 0.0002111122012138367 1 -4.470348358154297e-08
vn 0 0 -1

# Mesh '' with 124 faces
usemtl $Material_0
f  1//1 2//1 3//1
f  1//1 3//1 4//1
f  4//2 3//2 5//2
f  4//2 5//2 6//2
f  6//3 5//3 7//3
f  6//3 7//3 8//3
f  8//4 7//4 9//4
f  8//4 9//4 10//4
f  10//5 9//5 11//5
f  10//5 11//5 12//5
f  12//6 11//6 13//6
f  12//6 13//6 14//6
f  14//7 13//7 15//7
f  14//7 15//7 16//7
f  16//8 15//8 17//8
f  16//8 17//8 18//8
f  18//9 17//9 19//9
f  18//9 19//9 20//9
f  20//10 19//10 21//10
f  20//10 21//10 22//10
f  22//11 21//11 23//11
f  22//11 23//11 24//11
f  24//12 23//12 25//12
f  24//12 25//12 26//12
f  26//13 25//13 27//13
f  26//13 27//13 28//13
f  28//14 27//14 29//14
f  28//14 29//14 30//14
f  30//15 29//15 31//15
f  30//15 31//15 32//15
f  32//16 31//16 33//16
f  32//16 33//16 34//16
f  34//17 33//17 35//17
f  34//17 35//17 36//17
f  36//18 35//18 37//18
f  36//18 37//18 38//18
f  38//19 37//19 39//19
f  38//19 39//19 40//19
f  40//20 39//20 41//20
f  40//20 41//20 42//20
f  42//21 41//21 43//21
f  42//21 43//21 44//21
f  44//22 43//22 45//22
f  44//22 45//22 46//22
f  46//23 45//23 47//23
f  46//23 47//23 48//23
f  48//24 47//24 49//24
f  48//24 49//24 50//24
f  50//25 49//25 51//25
f  50//25 51//25 52//25
f  52//26 51//26 53//26
f  52//26 53//26 54//26
f  54//27 53//27 55//27
f  54//27 55//27 56//27
f  56//28 55//28 57//28
f  56//28 57//28 58//28
f  58//29 57//29 59//29
f  58//29 59//29 60//29
f  60//30 59//30 61//30
f  60//30 61//30 62//30
f  5//31 3//31 2//31
f  5//31 2//31 63//31
f  5//31 63//31 61//31
f  5//31 61//31 59//31
f  5//31 59//31 57//31
f  5//31 57//31 55//31
f  5//31 55//31 53//31
f  5//31 53//31 51//31
f  5//31 51//31 49//31
f  5//31 49//31 47//31
f  5//31 47//31 45//31
f  5//31 45//31 43//31
f  5//31 43//31 41//31
f  5//31 41//31 39//31
f  5//31 39//31 37//31
f  5//31 37//31 35//31
f  5//31 35//31 33//31
f  5//31 33//31 31//31
f  5//31 31//31 29//31
f  5//31 29//31 27//31
f  5//31 27//31 25//31
f  5//31 25//31 23//31
f  5//31 23//31 21//31
f  5//31 21//31 19//31
f  5//31 19//31 17//31
f  5//31 17//31 15//31
f  5//31 15//31 13//31
f  5//31 13//31 11//31
f  5//31 11//31 9//31
f  9//31 7//31 5//31
f  62//32 61//32 63//32
f  62//32 63//32 64//32
f  64//33 63//33 2//33
f  64//33 2//33 1//33
f  64//34 1//34 4//34
f  64//34 4//34 6//34
f  64//34 6//34 8//34
f  64//34 8//34 10//34
f  64//34 10//34 12//34
f  64//34 12//34 14//34
f  64//34 14//34 16//34
f  64//34 16//34 18//34
f  64//34 18//34 20//34
f  64//34 20//34 22//34
f  64//34 22//34 24//34
f  64//34 24//34 26//34
f  64//34 26//34 28//34
f  64//34 28//34 30//34
f  64//34 30//34 32//34
f  64//34 32//34 34//34
f  64//34 34//34 36//34
f  64//34 36//34 38//34
f  64//34 38//34 40//34
f  64//34 40//34 42//34
f  64//34 42//34 44//34
f  64//34 44//34 46//34
f  64//34 46//34 48//34
f  64//34 48//34 50//34
f  64//34 50//34 52//34
f  64//34 52//34 54//34
f  64//34 54//34 56//34
f  64//34 56//34 58//34
f  64//34 58//34 60//34
f  60//34 62//34 64//34

